<svg width="35" height="30" viewBox="0 0 35 30" fill="none" xmlns="http://www.w3.org/2000/svg">
<path d="M11.75 21.2663L17.2663 21.2475L29.3063 9.3225C29.7788 8.85 30.0388 8.2225 30.0388 7.555C30.0388 6.8875 29.7788 6.26 29.3063 5.7875L27.3238 3.805C26.3788 2.86 24.73 2.865 23.7925 3.80125L11.75 15.7288V21.2663ZM25.5563 5.5725L27.5425 7.55125L25.5463 9.52875L23.5638 7.5475L25.5563 5.5725ZM14.25 16.7712L21.7875 9.305L23.77 11.2875L16.2338 18.7513L14.25 18.7575V16.7712Z" fill="#18181B"/>
<path d="M9.25 26.25H26.75C28.1287 26.25 29.25 25.1287 29.25 23.75V12.915L26.75 15.415V23.75H13.1975C13.165 23.75 13.1313 23.7625 13.0988 23.7625C13.0575 23.7625 13.0163 23.7512 12.9738 23.75H9.25V6.25H17.8088L20.3088 3.75H9.25C7.87125 3.75 6.75 4.87125 6.75 6.25V23.75C6.75 25.1287 7.87125 26.25 9.25 26.25Z" fill="#18181B"/>
</svg>
