<svg width="35" height="30" viewBox="0 0 35 30" fill="none" xmlns="http://www.w3.org/2000/svg">
<path d="M9.45833 24C9.45833 25.375 10.7708 26.5 12.375 26.5H24.0417C25.6458 26.5 26.9583 25.375 26.9583 24V11.5C26.9583 10.125 25.6458 9 24.0417 9H12.375C10.7708 9 9.45833 10.125 9.45833 11.5V24ZM26.9583 5.25H23.3125L22.2771 4.3625C22.0146 4.1375 21.6354 4 21.2563 4H15.1604C14.7812 4 14.4021 4.1375 14.1396 4.3625L13.1042 5.25H9.45833C8.65625 5.25 8 5.8125 8 6.5C8 7.1875 8.65625 7.75 9.45833 7.75H26.9583C27.7604 7.75 28.4167 7.1875 28.4167 6.5C28.4167 5.8125 27.7604 5.25 26.9583 5.25Z" fill="#EF4444"/>
</svg>
